<svg xmlns="http://www.w3.org/2000/svg" viewBox="0 0 1200 675" width="1200" height="675">
<defs>
  <linearGradient id="csc-building-bg" x1="0" y1="0" x2="1" y2="1"><stop offset="0%" stop-color="#050a18"/><stop offset="100%" stop-color="#0a1628"/></linearGradient>
  <linearGradient id="csc-building-acc" x1="0" y1="0" x2="1" y2="0"><stop offset="0%" stop-color="#38bdf8"/><stop offset="100%" stop-color="#f59e0b"/></linearGradient>
</defs>
<rect width="1200" height="675" fill="url(#csc-building-bg)"/>
<ellipse cx="960" cy="200" rx="380" ry="240" fill="#38bdf8" fill-opacity="0.07"/>
<ellipse cx="180" cy="560" rx="300" ry="200" fill="#f59e0b" fill-opacity="0.05"/>
<g stroke="#38bdf8" stroke-width="1" opacity="0.06"><line x1="0" y1="67" x2="1200" y2="67"/><line x1="0" y1="134" x2="1200" y2="134"/><line x1="0" y1="201" x2="1200" y2="201"/><line x1="0" y1="268" x2="1200" y2="268"/><line x1="0" y1="335" x2="1200" y2="335"/><line x1="0" y1="402" x2="1200" y2="402"/><line x1="0" y1="469" x2="1200" y2="469"/><line x1="0" y1="536" x2="1200" y2="536"/><line x1="0" y1="603" x2="1200" y2="603"/><line x1="0" y1="670" x2="1200" y2="670"/><line x1="150" y1="0" x2="150" y2="675"/><line x1="300" y1="0" x2="300" y2="675"/><line x1="450" y1="0" x2="450" y2="675"/><line x1="600" y1="0" x2="600" y2="675"/><line x1="750" y1="0" x2="750" y2="675"/><line x1="900" y1="0" x2="900" y2="675"/><line x1="1050" y1="0" x2="1050" y2="675"/></g>
<rect x="60" y="56" width="268" height="32" rx="16" fill="#38bdf8" fill-opacity="0.12" stroke="#38bdf8" stroke-opacity="0.4"/>
<text x="194.0" y="77" font-family="Inter, Arial, sans-serif" font-size="13" font-weight="600" fill="#38bdf8" text-anchor="middle" >BUREAU D'ÉTUDES · DAKAR · 2026</text>
<text x="60" y="150" font-family="Inter, Arial, sans-serif" font-size="48" font-weight="800" fill="#ffffff" text-anchor="start" letter-spacing="-1">CSC Building Design</text>
<text x="60" y="206" font-family="Inter, Arial, sans-serif" font-size="40" font-weight="800" fill="url(#csc-building-acc)" text-anchor="start" letter-spacing="-1">Plateforme métier</text>
<text x="60" y="244" font-family="Inter, Arial, sans-serif" font-size="15" font-weight="400" fill="#8ba3c7" text-anchor="start" >Site vitrine · espace client · back-office</text>
<rect x="60" y="266" width="540" height="2" rx="1" fill="url(#csc-building-acc)" opacity="0.35"/>
<rect x="60" y="290" width="540" height="50" rx="9" fill="#ffffff" fill-opacity="0.025" stroke="#ffffff" stroke-opacity="0.06"/>
<rect x="60" y="290" width="4" height="50" rx="2" fill="#38bdf8"/>
<text x="80" y="311" font-family="Inter, Arial, sans-serif" font-size="13" font-weight="700" fill="#ffffff" text-anchor="start" >Simulateur de devis</text>
<text x="80" y="329" font-family="Inter, Arial, sans-serif" font-size="11" font-weight="400" fill="#8ba3c7" text-anchor="start" >Calcul côté serveur, tarifs modifiables par l'admin</text>
<rect x="60" y="348" width="540" height="50" rx="9" fill="#ffffff" fill-opacity="0.025" stroke="#ffffff" stroke-opacity="0.06"/>
<rect x="60" y="348" width="4" height="50" rx="2" fill="#f59e0b"/>
<text x="80" y="369" font-family="Inter, Arial, sans-serif" font-size="13" font-weight="700" fill="#ffffff" text-anchor="start" >Paiement Wave, Orange Money, carte</text>
<text x="80" y="387" font-family="Inter, Arial, sans-serif" font-size="11" font-weight="400" fill="#8ba3c7" text-anchor="start" >PayTech, webhook IPN signé et idempotent</text>
<rect x="60" y="406" width="540" height="50" rx="9" fill="#ffffff" fill-opacity="0.025" stroke="#ffffff" stroke-opacity="0.06"/>
<rect x="60" y="406" width="4" height="50" rx="2" fill="#10b981"/>
<text x="80" y="427" font-family="Inter, Arial, sans-serif" font-size="13" font-weight="700" fill="#ffffff" text-anchor="start" >Du devis à la livraison des plans</text>
<text x="80" y="445" font-family="Inter, Arial, sans-serif" font-size="11" font-weight="400" fill="#8ba3c7" text-anchor="start" >Acompte, suivi du projet, factures PDF</text>
<rect x="60" y="464" width="540" height="50" rx="9" fill="#ffffff" fill-opacity="0.025" stroke="#ffffff" stroke-opacity="0.06"/>
<rect x="60" y="464" width="4" height="50" rx="2" fill="#f59e0b"/>
<text x="80" y="485" font-family="Inter, Arial, sans-serif" font-size="13" font-weight="700" fill="#ffffff" text-anchor="start" >Authentification sur mesure</text>
<text x="80" y="503" font-family="Inter, Arial, sans-serif" font-size="11" font-weight="400" fill="#8ba3c7" text-anchor="start" >bcrypt, JWT httpOnly, Google OAuth</text>
<rect x="60" y="528" width="83" height="26" rx="13" fill="#38bdf8" fill-opacity="0.1" stroke="#38bdf8" stroke-opacity="0.3"/>
<text x="101.5" y="546" font-family="Inter, Arial, sans-serif" font-size="11" font-weight="600" fill="#38bdf8" text-anchor="middle" >React 18</text>
<rect x="151" y="528" width="98" height="26" rx="13" fill="#38bdf8" fill-opacity="0.1" stroke="#38bdf8" stroke-opacity="0.3"/>
<text x="200.0" y="546" font-family="Inter, Arial, sans-serif" font-size="11" font-weight="600" fill="#38bdf8" text-anchor="middle" >TypeScript</text>
<rect x="257" y="528" width="83" height="26" rx="13" fill="#38bdf8" fill-opacity="0.1" stroke="#38bdf8" stroke-opacity="0.3"/>
<text x="298.5" y="546" font-family="Inter, Arial, sans-serif" font-size="11" font-weight="600" fill="#38bdf8" text-anchor="middle" >Supabase</text>
<rect x="348" y="528" width="76" height="26" rx="13" fill="#38bdf8" fill-opacity="0.1" stroke="#38bdf8" stroke-opacity="0.3"/>
<text x="386.0" y="546" font-family="Inter, Arial, sans-serif" font-size="11" font-weight="600" fill="#38bdf8" text-anchor="middle" >PayTech</text>
<rect x="432" y="528" width="69" height="26" rx="13" fill="#38bdf8" fill-opacity="0.1" stroke="#38bdf8" stroke-opacity="0.3"/>
<text x="466.5" y="546" font-family="Inter, Arial, sans-serif" font-size="11" font-weight="600" fill="#38bdf8" text-anchor="middle" >Vercel</text>
<rect x="509" y="528" width="47" height="26" rx="13" fill="#38bdf8" fill-opacity="0.1" stroke="#38bdf8" stroke-opacity="0.3"/>
<text x="532.5" y="546" font-family="Inter, Arial, sans-serif" font-size="11" font-weight="600" fill="#38bdf8" text-anchor="middle" >zod</text>
<rect x="660" y="90" width="480" height="420" rx="14" fill="#ffffff" fill-opacity="0.02" stroke="#ffffff" stroke-opacity="0.08"/>
<path d="M660 104 a14 14 0 0 1 14 -14 h452 a14 14 0 0 1 14 14 v20 h-480 z" fill="#38bdf8" fill-opacity="0.1"/>
<circle cx="682" cy="107" r="5" fill="#ef4444" fill-opacity="0.6"/>
<circle cx="700" cy="107" r="5" fill="#f59e0b" fill-opacity="0.6"/>
<circle cx="718" cy="107" r="5" fill="#10b981" fill-opacity="0.6"/>
<rect x="750" y="99" width="300" height="16" rx="8" fill="#ffffff" fill-opacity="0.06"/>
<text x="900.0" y="111" font-family="Inter, Arial, sans-serif" font-size="10" font-weight="400" fill="#8ba3c7" text-anchor="middle" >Espace client · Back-office</text>
<text x="684" y="158" font-family="Inter, Arial, sans-serif" font-size="14" font-weight="700" fill="#ffffff" text-anchor="start" >Simulateur de devis</text>
<text x="1116" y="158" font-family="Inter, Arial, sans-serif" font-size="11" font-weight="600" fill="#38bdf8" text-anchor="end" >Étape 3 / 4</text>
<rect x="684" y="172" width="96" height="6" rx="3" fill="#38bdf8" fill-opacity="0.9"/>
<rect x="788" y="172" width="96" height="6" rx="3" fill="#38bdf8" fill-opacity="0.9"/>
<rect x="892" y="172" width="96" height="6" rx="3" fill="#38bdf8" fill-opacity="0.9"/>
<rect x="996" y="172" width="96" height="6" rx="3" fill="#ffffff" fill-opacity="0.1"/>
<text x="684" y="202" font-family="Inter, Arial, sans-serif" font-size="10" font-weight="400" fill="#8ba3c7" text-anchor="start" >Type de projet</text>
<rect x="684" y="210" width="432" height="30" rx="8" fill="#ffffff" fill-opacity="0.04" stroke="#38bdf8" stroke-opacity="0.25"/>
<text x="698" y="230" font-family="Inter, Arial, sans-serif" font-size="11" font-weight="400" fill="#e2e8f0" text-anchor="start" >Villa R+1</text>
<text x="684" y="254" font-family="Inter, Arial, sans-serif" font-size="10" font-weight="400" fill="#8ba3c7" text-anchor="start" >Prestations</text>
<rect x="684" y="262" width="432" height="30" rx="8" fill="#ffffff" fill-opacity="0.04" stroke="#38bdf8" stroke-opacity="0.25"/>
<text x="698" y="282" font-family="Inter, Arial, sans-serif" font-size="11" font-weight="400" fill="#e2e8f0" text-anchor="start" >Plans 2D/3D · Structure</text>
<text x="684" y="306" font-family="Inter, Arial, sans-serif" font-size="10" font-weight="400" fill="#8ba3c7" text-anchor="start" >Surface</text>
<rect x="684" y="314" width="432" height="30" rx="8" fill="#ffffff" fill-opacity="0.04" stroke="#38bdf8" stroke-opacity="0.25"/>
<text x="698" y="334" font-family="Inter, Arial, sans-serif" font-size="11" font-weight="400" fill="#e2e8f0" text-anchor="start" >Saisie par le client</text>
<rect x="684" y="370" width="432" height="58" rx="10" fill="#38bdf8" fill-opacity="0.1" stroke="#38bdf8" stroke-opacity="0.35"/>
<text x="700" y="394" font-family="Inter, Arial, sans-serif" font-size="11" font-weight="400" fill="#8ba3c7" text-anchor="start" >Fourchette estimée</text>
<text x="700" y="416" font-family="Inter, Arial, sans-serif" font-size="12" font-weight="700" fill="#38bdf8" text-anchor="start" >Calcul côté serveur · grille confidentielle</text>
<rect x="684" y="442" width="211.0" height="34" rx="17" fill="#38bdf8"/>
<text x="789.5" y="464" font-family="Inter, Arial, sans-serif" font-size="12" font-weight="800" fill="#050a18" text-anchor="middle" >Demander un devis</text>
<rect x="905.0" y="442" width="211.0" height="34" rx="17" fill="none" stroke="#f59e0b" stroke-opacity="0.6"/>
<text x="1010.5" y="464" font-family="Inter, Arial, sans-serif" font-size="11" font-weight="700" fill="#f59e0b" text-anchor="middle" >Wave · Orange Money</text>
<rect x="0" y="661" width="1200" height="3" fill="url(#csc-building-acc)" opacity="0.7"/>
</svg>